<svg id="Layer_1" data-name="Layer 1" xmlns="http://www.w3.org/2000/svg" viewBox="0 0 540 42"><defs><style>.cls-1{fill:#231f20;}.cls-2{fill:#b79b6e;}.cls-3{fill:none;}</style></defs><path class="cls-1" d="M176.52,1h12l17,27.77h.11V1h8.81V41H202.88L185.44,12.53h-.12V41h-8.8Z" transform="translate(0 0)"/><path class="cls-1" d="M225.6,8.81H214.19V1h31.62V8.81H234.4V41h-8.8Z" transform="translate(0 0)"/><path class="cls-2" d="M254.76,25.54H240.87V18.77h13.89Z" transform="translate(0 0)"/><path class="cls-2" d="M294.33,25.57a19.15,19.15,0,0,1-1.07,6.55,14.23,14.23,0,0,1-3.19,5.19,14.6,14.6,0,0,1-5.28,3.45A19.73,19.73,0,0,1,277.51,42a20,20,0,0,1-7.34-1.24,14.64,14.64,0,0,1-5.27-3.45,14.1,14.1,0,0,1-3.19-5.19,19.15,19.15,0,0,1-1.08-6.55V1h8.81V25.23a9.88,9.88,0,0,0,.59,3.45,8.37,8.37,0,0,0,1.67,2.74,7.46,7.46,0,0,0,2.57,1.8,8.08,8.08,0,0,0,3.24.65,7.92,7.92,0,0,0,3.22-.65,7.53,7.53,0,0,0,2.54-1.8,8.54,8.54,0,0,0,1.67-2.74,9.88,9.88,0,0,0,.59-3.45V1h8.8Z" transform="translate(0 0)"/><path class="cls-2" d="M320.7,10.78a6.32,6.32,0,0,0-2.91-2,10.47,10.47,0,0,0-3.47-.65,8.61,8.61,0,0,0-2,.23,7.47,7.47,0,0,0-1.92.7A4.09,4.09,0,0,0,309,10.33a3.21,3.21,0,0,0-.57,1.92A3.18,3.18,0,0,0,309.75,15a12.74,12.74,0,0,0,3.41,1.63c1.37.45,2.85.91,4.43,1.36A18.06,18.06,0,0,1,322,19.93a10.46,10.46,0,0,1,3.42,3.33,10.16,10.16,0,0,1,1.35,5.59,12.79,12.79,0,0,1-1.24,5.81,11.79,11.79,0,0,1-3.36,4.12,14.3,14.3,0,0,1-4.91,2.43,22.47,22.47,0,0,1-13.12-.4A18.22,18.22,0,0,1,298,37l6.26-6.89a9.11,9.11,0,0,0,3.42,2.79,9.7,9.7,0,0,0,4.26,1,9.51,9.51,0,0,0,2.17-.25,7.28,7.28,0,0,0,2-.76,4.41,4.41,0,0,0,1.41-1.3,3.24,3.24,0,0,0,.54-1.87,3.37,3.37,0,0,0-1.39-2.85,12.94,12.94,0,0,0-3.47-1.78c-1.39-.48-2.9-1-4.51-1.46a20.18,20.18,0,0,1-4.52-2,10.94,10.94,0,0,1-3.47-3.27A9.42,9.42,0,0,1,299.25,13a12,12,0,0,1,1.27-5.64,12.25,12.25,0,0,1,3.38-4.07A14.6,14.6,0,0,1,308.79.82a19.79,19.79,0,0,1,5.7-.82A22.42,22.42,0,0,1,321,1a15.15,15.15,0,0,1,5.7,3.22Z" transform="translate(0 0)"/><path class="cls-2" d="M332.09,1H347a38.38,38.38,0,0,1,5.22.36,14.44,14.44,0,0,1,4.71,1.47,9,9,0,0,1,3.39,3.08,9.41,9.41,0,0,1,1.3,5.25,8.35,8.35,0,0,1-1.89,5.61,10.38,10.38,0,0,1-5,3.19v.12a11.41,11.41,0,0,1,3.59,1.1,9.41,9.41,0,0,1,2.76,2.09,8.77,8.77,0,0,1,1.78,3,10.49,10.49,0,0,1,.62,3.61,9.63,9.63,0,0,1-1.35,5.28,10.79,10.79,0,0,1-3.5,3.42,15.57,15.57,0,0,1-4.83,1.86,25.61,25.61,0,0,1-5.33.56H332.09Zm8.81,16h6.38a9,9,0,0,0,2-.22,5.54,5.54,0,0,0,1.78-.74,3.83,3.83,0,0,0,1.27-1.35,4.06,4.06,0,0,0,.48-2,3.73,3.73,0,0,0-.53-2.06,3.79,3.79,0,0,0-1.39-1.28A6.48,6.48,0,0,0,349,8.67a10.79,10.79,0,0,0-2.09-.2h-6Zm0,16.54h7.9a9.69,9.69,0,0,0,2.06-.22,5.62,5.62,0,0,0,1.9-.79,4.63,4.63,0,0,0,1.38-1.47,4.22,4.22,0,0,0,.53-2.2,3.54,3.54,0,0,0-.7-2.29,4.57,4.57,0,0,0-1.78-1.33,9.46,9.46,0,0,0-2.31-.62,17.74,17.74,0,0,0-2.32-.17H340.9Z" transform="translate(0 0)"/><rect class="cls-3" width="540" height="42"/></svg>