<svg id="Layer_1" data-name="Layer 1" xmlns="http://www.w3.org/2000/svg" viewBox="0 0 540 42"><defs><style>.cls-1{fill:none;}.cls-2{fill:#fff;}.cls-3{fill:#b79b6e;}</style></defs><rect class="cls-1" width="540" height="42"/><path class="cls-2" d="M123.25,1h12l17,27.77h.11V1h8.81V41H149.61L132.17,12.53h-.11V41h-8.81Z"/><path class="cls-2" d="M172.33,8.81h-11.4V1h31.61V8.81h-11.4V41h-8.81Z"/><path class="cls-2" d="M201.49,25.54H187.6V18.77h13.89Z"/><path class="cls-2" d="M241.07,25.57A19.15,19.15,0,0,1,240,32.12a14.21,14.21,0,0,1-3.18,5.19,14.77,14.77,0,0,1-5.28,3.45,22.17,22.17,0,0,1-14.62,0,14.6,14.6,0,0,1-5.28-3.45,14.23,14.23,0,0,1-3.19-5.19,19.15,19.15,0,0,1-1.07-6.55V1h8.8V25.23a9.88,9.88,0,0,0,.59,3.45,8.37,8.37,0,0,0,1.67,2.74,7.46,7.46,0,0,0,2.57,1.8,8.12,8.12,0,0,0,3.24.65,7.92,7.92,0,0,0,3.22-.65,7.53,7.53,0,0,0,2.54-1.8,8.37,8.37,0,0,0,1.67-2.74,9.88,9.88,0,0,0,.59-3.45V1h8.81Z"/><path class="cls-2" d="M267.43,10.78a6.32,6.32,0,0,0-2.91-2,10.47,10.47,0,0,0-3.47-.65,8.61,8.61,0,0,0-2,.23,7.54,7.54,0,0,0-1.91.7,4,4,0,0,0-1.47,1.27,3.21,3.21,0,0,0-.57,1.92A3.18,3.18,0,0,0,256.48,15a12.74,12.74,0,0,0,3.41,1.63c1.38.45,2.85.91,4.44,1.36a18.23,18.23,0,0,1,4.43,1.92,10.52,10.52,0,0,1,3.41,3.33,10.16,10.16,0,0,1,1.36,5.59,12.79,12.79,0,0,1-1.25,5.81,11.65,11.65,0,0,1-3.35,4.12A14.44,14.44,0,0,1,264,41.21a22.47,22.47,0,0,1-13.12-.4A18.22,18.22,0,0,1,244.68,37L251,30.09a9.08,9.08,0,0,0,3.41,2.79,9.65,9.65,0,0,0,6.44.74,7.34,7.34,0,0,0,2-.76,4.21,4.21,0,0,0,1.41-1.3,3.24,3.24,0,0,0,.54-1.87,3.39,3.39,0,0,0-1.38-2.85,13,13,0,0,0-3.48-1.78c-1.39-.48-2.89-1-4.51-1.46a20.38,20.38,0,0,1-4.52-2,10.94,10.94,0,0,1-3.47-3.27A9.42,9.42,0,0,1,246,13a12,12,0,0,1,1.27-5.64,12.28,12.28,0,0,1,3.39-4.07A14.55,14.55,0,0,1,255.52.82a19.79,19.79,0,0,1,5.7-.82,22.42,22.42,0,0,1,6.55,1,15,15,0,0,1,5.7,3.22Z"/><path class="cls-2" d="M278.83,1h14.9a38.38,38.38,0,0,1,5.22.36,14.58,14.58,0,0,1,4.72,1.47,8.94,8.94,0,0,1,3.38,3.08,9.41,9.41,0,0,1,1.3,5.25,8.35,8.35,0,0,1-1.89,5.61,10.38,10.38,0,0,1-5,3.19v.12a11.33,11.33,0,0,1,3.59,1.1,9.41,9.41,0,0,1,2.76,2.09,8.61,8.61,0,0,1,1.78,3,10.26,10.26,0,0,1,.62,3.61,9.63,9.63,0,0,1-1.35,5.28,10.69,10.69,0,0,1-3.5,3.42,15.57,15.57,0,0,1-4.83,1.86,25.54,25.54,0,0,1-5.33.56H278.83Zm8.8,16H294a9,9,0,0,0,2-.22,5.48,5.48,0,0,0,1.77-.74,3.83,3.83,0,0,0,1.27-1.35,4.06,4.06,0,0,0,.48-2,3.65,3.65,0,0,0-.53-2.06,3.79,3.79,0,0,0-1.39-1.28,6.51,6.51,0,0,0-1.91-.64,10.94,10.94,0,0,0-2.09-.2h-6Zm0,16.54h7.91a9.83,9.83,0,0,0,2.06-.22,5.66,5.66,0,0,0,1.89-.79,4.63,4.63,0,0,0,1.38-1.47,4.22,4.22,0,0,0,.54-2.2,3.54,3.54,0,0,0-.71-2.29,4.57,4.57,0,0,0-1.78-1.33,9.34,9.34,0,0,0-2.31-.62,17.74,17.74,0,0,0-2.32-.17h-6.66Z"/><path class="cls-3" d="M326.34,10.22h8.35l8.21,21.55,8.29-21.55h8.26V41h-5.21V15.44h-.09L344.81,41H341l-9.35-25.54h-.08V41h-5.22Z"/><path class="cls-3" d="M365.72,10.22h5.47V41h-5.47Z"/><path class="cls-3" d="M377.37,10.22h7.26l14.9,22.86h.09V10.22h5.47V41h-6.95l-15.2-23.59h-.09V41h-5.48Z"/><path class="cls-3" d="M411.28,10.22h5.47V41h-5.47Z"/></svg>