<svg id="Layer_1" data-name="Layer 1" xmlns="http://www.w3.org/2000/svg" viewBox="0 0 540 72"><defs><style>.cls-1{fill:#231f20;}.cls-2{fill:#ad9970;}</style></defs><path class="cls-1" d="M123.25,31h12l17,27.77h.11V31h8.81V71H149.61L132.17,42.53h-.11V71h-8.81Z"/><path class="cls-1" d="M172.33,38.81h-11.4V31h31.61v7.81h-11.4V71h-8.81Z"/><path class="cls-1" d="M201.49,55.54H187.6V48.77h13.89Z"/><path class="cls-1" d="M241.07,55.57A19,19,0,0,1,240,62.12a14.2,14.2,0,0,1-3.18,5.19,14.75,14.75,0,0,1-5.28,3.45,22.21,22.21,0,0,1-14.62,0,14.62,14.62,0,0,1-5.28-3.45,14.23,14.23,0,0,1-3.19-5.19,19,19,0,0,1-1.07-6.55V31h8.8V55.23a9.9,9.9,0,0,0,.59,3.45,8.31,8.31,0,0,0,1.67,2.74,7.43,7.43,0,0,0,2.57,1.8,8,8,0,0,0,3.24.65,7.92,7.92,0,0,0,3.22-.65,7.59,7.59,0,0,0,2.54-1.8,8.31,8.31,0,0,0,1.67-2.74,9.9,9.9,0,0,0,.59-3.45V31h8.81Z"/><path class="cls-1" d="M267.43,40.78a6.34,6.34,0,0,0-2.91-2,10.51,10.51,0,0,0-3.47-.65,9,9,0,0,0-2,.23,7.54,7.54,0,0,0-1.91.7,4,4,0,0,0-1.47,1.27,3.46,3.46,0,0,0,.81,4.67,12.74,12.74,0,0,0,3.41,1.63c1.38.45,2.85.91,4.44,1.36a18.18,18.18,0,0,1,4.43,1.92,10.43,10.43,0,0,1,3.41,3.33,10.2,10.2,0,0,1,1.36,5.59,12.68,12.68,0,0,1-1.25,5.81,11.64,11.64,0,0,1-3.35,4.12A14.25,14.25,0,0,1,264,71.21a22.4,22.4,0,0,1-13.12-.4,18.3,18.3,0,0,1-6.2-3.81L251,60.09a9.06,9.06,0,0,0,3.41,2.79,9.68,9.68,0,0,0,6.44.74,7.24,7.24,0,0,0,2-.76,4.18,4.18,0,0,0,1.41-1.3,3.19,3.19,0,0,0,.54-1.87,3.39,3.39,0,0,0-1.38-2.85,12.73,12.73,0,0,0-3.48-1.78c-1.39-.48-2.89-1-4.51-1.46a20.28,20.28,0,0,1-4.52-2,11,11,0,0,1-3.47-3.27A9.45,9.45,0,0,1,246,43a12,12,0,0,1,1.27-5.64,12.24,12.24,0,0,1,3.39-4.07,14.61,14.61,0,0,1,4.86-2.47,19.65,19.65,0,0,1,5.7-.82,22.38,22.38,0,0,1,6.55,1,15,15,0,0,1,5.7,3.22Z"/><path class="cls-1" d="M278.83,31h14.9a37.94,37.94,0,0,1,5.22.36,14.5,14.5,0,0,1,4.72,1.47,9,9,0,0,1,3.38,3.08,9.4,9.4,0,0,1,1.3,5.25,8.35,8.35,0,0,1-1.89,5.61,10.33,10.33,0,0,1-5,3.19v.12a11.33,11.33,0,0,1,3.59,1.1,9.41,9.41,0,0,1,2.76,2.09,8.63,8.63,0,0,1,1.78,3,10.35,10.35,0,0,1,.62,3.61,9.6,9.6,0,0,1-1.35,5.28,10.59,10.59,0,0,1-3.5,3.42,15.52,15.52,0,0,1-4.83,1.86,25.8,25.8,0,0,1-5.33.56H278.83Zm8.8,16H294a9,9,0,0,0,2-.22,5.41,5.41,0,0,0,1.77-.74A3.82,3.82,0,0,0,299,44.69a4.08,4.08,0,0,0,.48-2,3.65,3.65,0,0,0-.53-2.06,3.79,3.79,0,0,0-1.39-1.28,6.42,6.42,0,0,0-1.91-.64,11.3,11.3,0,0,0-2.09-.2h-6Zm0,16.54h7.91a9.55,9.55,0,0,0,2.06-.22,5.71,5.71,0,0,0,1.89-.79,4.62,4.62,0,0,0,1.38-1.47,4.23,4.23,0,0,0,.54-2.2,3.51,3.51,0,0,0-.71-2.29,4.59,4.59,0,0,0-1.78-1.33,9.74,9.74,0,0,0-2.31-.62,18,18,0,0,0-2.32-.17h-6.66Z"/><path class="cls-2" d="M326.34,40.22h8.35l8.21,21.55,8.29-21.55h8.26V71h-5.21V45.44h-.09L344.81,71H341l-9.35-25.54h-.08V71h-5.22Z"/><path class="cls-2" d="M365.72,40.22h5.47V71h-5.47Z"/><path class="cls-2" d="M377.37,40.22h7.26l14.9,22.86h.09V40.22h5.47V71h-6.95l-15.2-23.59h-.09V71h-5.48Z"/><path class="cls-2" d="M411.28,40.22h5.47V71h-5.47Z"/></svg>