<svg id="Layer_1" data-name="Layer 1" xmlns="http://www.w3.org/2000/svg" viewBox="0 0 510 42"><defs><style>.cls-1{fill:#231f20;}.cls-2{fill:#ad9970;}.cls-3{fill:none;}</style></defs><path class="cls-1" d="M142.69.69h12.16l17.27,28.23h.12V.69h8.95V41.31H169.48L151.75,12.39h-.11V41.31h-8.95Z" transform="translate(0 0)"/><path class="cls-1" d="M192.72,8.61H181.13V.69h32.13V8.61H201.67v32.7h-8.95Z" transform="translate(0 0)"/><path class="cls-1" d="M218.37.69h8.95V15.84H244.7V.69h9V41.31h-9V23.75H227.32V41.31h-8.95Z" transform="translate(0 0)"/><path class="cls-1" d="M273.91,25.58H259.79V18.7h14.12Z" transform="translate(0 0)"/><path class="cls-2" d="M289,10.33l-8.14,7.17L276,11.88,289.22.69h8V41.31H289Z" transform="translate(0 0)"/><path class="cls-2" d="M302.59,21a42,42,0,0,1,.66-7.34,21.63,21.63,0,0,1,2.35-6.77,14,14,0,0,1,4.62-5,15.45,15.45,0,0,1,14.92,0,14,14,0,0,1,4.62,5,21.38,21.38,0,0,1,2.35,6.77,41.14,41.14,0,0,1,0,14.68,21.38,21.38,0,0,1-2.35,6.77,14,14,0,0,1-4.62,5,15.45,15.45,0,0,1-14.92,0,14,14,0,0,1-4.62-5,21.63,21.63,0,0,1-2.35-6.77A42,42,0,0,1,302.59,21Zm8.61,0c0,1.07.05,2.35.14,3.84a19.08,19.08,0,0,0,.78,4.31,9.21,9.21,0,0,0,1.92,3.5,5.32,5.32,0,0,0,7.26,0,9,9,0,0,0,1.95-3.5,18.53,18.53,0,0,0,.77-4.31q.15-2.23.15-3.84T324,17.16a18.53,18.53,0,0,0-.77-4.31,9,9,0,0,0-1.95-3.5,5.32,5.32,0,0,0-7.26,0,9.21,9.21,0,0,0-1.92,3.5,19.08,19.08,0,0,0-.78,4.31C311.25,18.65,311.2,19.93,311.2,21Z" transform="translate(0 0)"/><path class="cls-2" d="M337.13,21a42,42,0,0,1,.66-7.34,21.39,21.39,0,0,1,2.36-6.77,13.9,13.9,0,0,1,4.61-5,15.45,15.45,0,0,1,14.92,0,14,14,0,0,1,4.62,5,21.38,21.38,0,0,1,2.35,6.77,41.14,41.14,0,0,1,0,14.68,21.38,21.38,0,0,1-2.35,6.77,14,14,0,0,1-4.62,5,15.45,15.45,0,0,1-14.92,0,13.9,13.9,0,0,1-4.61-5,21.39,21.39,0,0,1-2.36-6.77A42,42,0,0,1,337.13,21Zm8.61,0c0,1.07.05,2.35.14,3.84a19.08,19.08,0,0,0,.78,4.31,9.21,9.21,0,0,0,1.92,3.5,5.32,5.32,0,0,0,7.26,0,9,9,0,0,0,2-3.5,18.53,18.53,0,0,0,.77-4.31q.15-2.23.15-3.84t-.15-3.84a18.53,18.53,0,0,0-.77-4.31,9,9,0,0,0-2-3.5,5.32,5.32,0,0,0-7.26,0,9.21,9.21,0,0,0-1.92,3.5,19.08,19.08,0,0,0-.78,4.31C345.79,18.65,345.74,19.93,345.74,21Z" transform="translate(0 0)"/><rect class="cls-3" width="510" height="42"/></svg>