<svg id="Layer_1" data-name="Layer 1" xmlns="http://www.w3.org/2000/svg" viewBox="0 0 540 72"><defs><style>.cls-1{fill:#231f20;}.cls-2{fill:#ad9970;}</style></defs><path class="cls-1" d="M158.32,31H173a28.2,28.2,0,0,1,5.79.56,13.07,13.07,0,0,1,4.76,1.95,9.76,9.76,0,0,1,3.23,3.72,12.88,12.88,0,0,1,1.2,5.9A13.62,13.62,0,0,1,186.83,49a9.66,9.66,0,0,1-3.06,3.79,12.29,12.29,0,0,1-4.62,2,26.17,26.17,0,0,1-5.79.59H167V71h-8.69ZM167,48h5.79a11.39,11.39,0,0,0,2.26-.22A6,6,0,0,0,177,47a4,4,0,0,0,1.4-1.46,4.71,4.71,0,0,0,.53-2.35,4,4,0,0,0-.7-2.45,4.62,4.62,0,0,0-1.78-1.44,7.47,7.47,0,0,0-2.45-.69c-.9-.09-1.75-.14-2.57-.14H167Z"/><path class="cls-1" d="M191.29,51a23.07,23.07,0,0,1,1.58-8.69,19.21,19.21,0,0,1,4.43-6.64,19.52,19.52,0,0,1,6.7-4.2,25.43,25.43,0,0,1,17,0,19.48,19.48,0,0,1,6.74,4.2,19.21,19.21,0,0,1,4.43,6.64,24.12,24.12,0,0,1,.08,17.38,19.21,19.21,0,0,1-4.43,6.64,19.78,19.78,0,0,1-6.74,4.2,25.43,25.43,0,0,1-17,0,19.78,19.78,0,0,1-6.74-4.2,19.21,19.21,0,0,1-4.43-6.64A22.91,22.91,0,0,1,191.29,51Zm9,0a14.93,14.93,0,0,0,.86,5.17,11.79,11.79,0,0,0,2.48,4.06,11.41,11.41,0,0,0,3.87,2.68,13.71,13.71,0,0,0,10.08,0,11.41,11.41,0,0,0,3.87-2.68A12,12,0,0,0,224,56.17a14.93,14.93,0,0,0,.86-5.17,15.24,15.24,0,0,0-.86-5.14,11.76,11.76,0,0,0-2.48-4.09,11.27,11.27,0,0,0-3.87-2.68,13.71,13.71,0,0,0-10.08,0,11.27,11.27,0,0,0-3.87,2.68,11.76,11.76,0,0,0-2.48,4.09,15,15,0,0,0-.91,5.14Z"/><path class="cls-1" d="M239.73,31h13a36.39,36.39,0,0,1,9,1.07,20.25,20.25,0,0,1,7.43,3.47,16.88,16.88,0,0,1,5,6.24A21.15,21.15,0,0,1,276,51.09a19.33,19.33,0,0,1-1.81,8.56,18.51,18.51,0,0,1-4.87,6.2,21.32,21.32,0,0,1-7.08,3.81,27.3,27.3,0,0,1-8.41,1.3h-14.2Zm8.69,31.83h4.51a23.51,23.51,0,0,0,5.6-.62,11.73,11.73,0,0,0,4.47-2,9.8,9.8,0,0,0,3-3.78,13.73,13.73,0,0,0,1.09-5.73A11.25,11.25,0,0,0,266,45.55,10.07,10.07,0,0,0,263.07,42a12.9,12.9,0,0,0-4.32-2.12,19.13,19.13,0,0,0-5.21-.7h-5.12Z"/><path class="cls-2" d="M282,31h13.14l9.08,26.08h.11L313.46,31h13.09V71h-8.69V40.33h-.11L307.39,71h-6.62l-10-30.65h-.11V71H282Z"/><path class="cls-2" d="M331.67,31h8.69V71h-8.69Z"/><path class="cls-2" d="M374.05,41.4A8.52,8.52,0,0,0,370.9,39a10.31,10.31,0,0,0-4.31-.85,11,11,0,0,0-8.16,3.68,12.78,12.78,0,0,0-2.4,4.09,15.24,15.24,0,0,0-.86,5.14,14.93,14.93,0,0,0,.86,5.17,13.16,13.16,0,0,0,2.37,4.06A10.71,10.71,0,0,0,361.94,63a10,10,0,0,0,4.37,1A9.63,9.63,0,0,0,371,62.74a9.37,9.37,0,0,0,3.4-3.16l7.24,5.48a15.17,15.17,0,0,1-6.35,5.25A19.6,19.6,0,0,1,367.42,72a24,24,0,0,1-8.52-1.47,19.78,19.78,0,0,1-6.74-4.2,19,19,0,0,1-4.42-6.64A22.89,22.89,0,0,1,346.15,51a22.85,22.85,0,0,1,1.59-8.69,19,19,0,0,1,4.42-6.64,19.48,19.48,0,0,1,6.74-4.2A24,24,0,0,1,367.42,30a19.33,19.33,0,0,1,3.48.31,18.37,18.37,0,0,1,3.57,1,15.42,15.42,0,0,1,3.37,1.81,13.28,13.28,0,0,1,2.89,2.76Z"/></svg>