<svg id="Layer_1" data-name="Layer 1" xmlns="http://www.w3.org/2000/svg" viewBox="0 0 540 42"><defs><style>.cls-1{fill:none;}.cls-2{fill:#fff;}.cls-3{fill:#b79b6e;}</style></defs><rect class="cls-1" width="540" height="42"/><path class="cls-2" d="M158.32,1H173a28.3,28.3,0,0,1,5.79.56,13.2,13.2,0,0,1,4.76,1.95,9.84,9.84,0,0,1,3.23,3.72,12.91,12.91,0,0,1,1.2,5.9A13.63,13.63,0,0,1,186.83,19a9.59,9.59,0,0,1-3.06,3.79,12.27,12.27,0,0,1-4.62,2,26.41,26.41,0,0,1-5.79.59H167V41h-8.69ZM167,18h5.79a11.18,11.18,0,0,0,2.26-.22A5.84,5.84,0,0,0,177,17a4,4,0,0,0,1.4-1.46,4.75,4.75,0,0,0,.53-2.35,4,4,0,0,0-.7-2.45,4.65,4.65,0,0,0-1.78-1.44A7.44,7.44,0,0,0,174,8.61c-.9-.09-1.75-.14-2.57-.14H167Z"/><path class="cls-2" d="M191.29,21a23,23,0,0,1,1.58-8.69,19.2,19.2,0,0,1,4.43-6.64A19.61,19.61,0,0,1,204,1.47a25.43,25.43,0,0,1,17,0,19.61,19.61,0,0,1,6.74,4.2,19.2,19.2,0,0,1,4.43,6.64A23,23,0,0,1,233.83,21a23,23,0,0,1-1.58,8.69,19.2,19.2,0,0,1-4.43,6.64,19.61,19.61,0,0,1-6.74,4.2,25.43,25.43,0,0,1-17,0,19.61,19.61,0,0,1-6.74-4.2,19.2,19.2,0,0,1-4.43-6.64A23,23,0,0,1,191.29,21Zm9,0a15,15,0,0,0,.86,5.17,11.9,11.9,0,0,0,2.48,4.06,11.34,11.34,0,0,0,3.87,2.68,13.71,13.71,0,0,0,10.08,0,11.34,11.34,0,0,0,3.87-2.68A11.9,11.9,0,0,0,224,26.17a15,15,0,0,0,.86-5.17,15.07,15.07,0,0,0-.86-5.14,11.84,11.84,0,0,0-2.48-4.09,11.34,11.34,0,0,0-3.87-2.68,13.71,13.71,0,0,0-10.08,0,11.34,11.34,0,0,0-3.87,2.68,11.84,11.84,0,0,0-2.48,4.09A15.07,15.07,0,0,0,200.31,21Z"/><path class="cls-2" d="M239.73,1h13a36.48,36.48,0,0,1,9,1.07,20.29,20.29,0,0,1,7.43,3.47,16.89,16.89,0,0,1,5,6.24,21.06,21.06,0,0,1,1.87,9.31,19.35,19.35,0,0,1-1.81,8.56,18.38,18.38,0,0,1-4.87,6.2,21.3,21.3,0,0,1-7.08,3.81,27,27,0,0,1-8.41,1.3h-14.2Zm8.69,31.83h4.51a23.67,23.67,0,0,0,5.6-.62A11.76,11.76,0,0,0,263,30.17a9.85,9.85,0,0,0,3-3.78,13.62,13.62,0,0,0,1.09-5.73A11.35,11.35,0,0,0,266,15.55,10.15,10.15,0,0,0,263.07,12a12.82,12.82,0,0,0-4.32-2.12,19,19,0,0,0-5.21-.7h-5.12Z"/><path class="cls-3" d="M282,1h13.14l9.08,26.08h.11L313.46,1h13.09V41h-8.69V10.33h-.11L307.39,41h-6.62l-10-30.65h-.11V41H282Z"/><path class="cls-3" d="M331.67,1h8.69V41h-8.69Z"/><path class="cls-3" d="M374.05,11.4A8.52,8.52,0,0,0,370.9,9a10.23,10.23,0,0,0-4.31-.85,10.71,10.71,0,0,0-4.54,1,10.85,10.85,0,0,0-3.62,2.68,12.66,12.66,0,0,0-2.4,4.09,15.07,15.07,0,0,0-.86,5.14,15,15,0,0,0,.86,5.17,13,13,0,0,0,2.37,4.06,10.65,10.65,0,0,0,3.54,2.68,10.08,10.08,0,0,0,4.37,1A9.59,9.59,0,0,0,371,32.74a9.43,9.43,0,0,0,3.4-3.16l7.24,5.48a15.14,15.14,0,0,1-6.35,5.25A19.57,19.57,0,0,1,367.42,42a24,24,0,0,1-8.52-1.47,19.61,19.61,0,0,1-6.74-4.2,19,19,0,0,1-4.42-6.64A22.76,22.76,0,0,1,346.15,21a22.76,22.76,0,0,1,1.59-8.69,19,19,0,0,1,4.42-6.64,19.61,19.61,0,0,1,6.74-4.2A24,24,0,0,1,367.42,0a20.16,20.16,0,0,1,3.48.31,19,19,0,0,1,3.57,1,15.51,15.51,0,0,1,3.37,1.81,13.45,13.45,0,0,1,2.89,2.76Z"/></svg>