<svg id="Layer_1" data-name="Layer 1" xmlns="http://www.w3.org/2000/svg" viewBox="0 0 540 42"><defs><style>.cls-1{fill:none;}.cls-2{fill:#fff;}.cls-3{fill:#ac9870;}.cls-4{fill:#ad9970;}</style></defs><rect class="cls-1" width="540" height="42"/><path class="cls-2" d="M42.65,13.93c0-7.27-7.27-11.82-14-11.82H9.13V41h11.7V22.11l9,18.53.11.34h13.3L34,24.61C39.36,23,42.65,18.93,42.65,13.93ZM20.83,7.68h3.41a6.1,6.1,0,0,1,6.37,6.37c0,5.45-3.07,6.47-8.53,6.47H20.83Z"/><polygon class="cls-2" points="142.65 34.73 142.65 24.05 155.38 24.05 155.38 17.8 142.65 17.8 142.65 8.25 156.06 8.25 156.06 2 130.95 2 130.95 40.86 156.74 40.86 156.74 34.73 142.65 34.73"/><path class="cls-2" d="M107,2H89.81V40.86h19c11.59,0,19.09-7.38,19.09-18.75C127.88,10.52,119.13,2,107,2Zm8.75,18.64c0,7.16-2.84,14.88-10.91,14.88H101V7.34h3.52C112.31,7.34,115.72,14.05,115.72,20.64Z"/><path class="cls-2" d="M85.72,4.73l-3.3-3.3-4,4A21.24,21.24,0,0,0,65.49,1,20.52,20.52,0,0,0,49.36,34.39l-4,4,3.29,3.3,4-4A20.81,20.81,0,0,0,65.49,42,20.35,20.35,0,0,0,86.17,21.55,20.92,20.92,0,0,0,81.74,8.7ZM65.49,6.09c3.64,0,5.68,2.39,6.93,5.34L57.31,26.55A45.48,45.48,0,0,1,57,21.43C56.86,16.89,57.77,6.09,65.49,6.09Zm8.18,10.57A42.15,42.15,0,0,1,74,21.55c0,4.65-.8,15.34-8.53,15.34-3.52,0-5.68-2.28-6.82-5.12Z"/><path class="cls-2" d="M522.33,1.07H520.9V.31h3.75v.76h-1.43V5h-.89Zm3.23-.76h1.36l1.28,3.63h0L529.51.31h1.36V5H530V1.09h0l-1.37,4h-.73l-1.38-3.95h0V5h-.89Z"/><path class="cls-3" d="M491.66,0h4.19V41.45H483.38V8.32A8.33,8.33,0,0,1,491.66,0Z"/><path class="cls-3" d="M507,41.45h-4.19V0h12.47V33.13A8.33,8.33,0,0,1,507,41.45Z"/><path class="cls-2" d="M198.22,34.69a16.55,16.55,0,0,1-6.51,5.46,19.31,19.31,0,0,1-8,1.66,21.61,21.61,0,0,1-8.2-1.52A18.5,18.5,0,0,1,169.13,36,19.32,19.32,0,0,1,165,29.52a22.37,22.37,0,0,1-1.49-8.25A22.13,22.13,0,0,1,165,13.05a19.49,19.49,0,0,1,4.14-6.49,18.86,18.86,0,0,1,6.37-4.28A21.23,21.23,0,0,1,183.7.74a19.46,19.46,0,0,1,7.43,1.41,14.65,14.65,0,0,1,6,4.72l-3,2.48a10.82,10.82,0,0,0-4.66-4,14.12,14.12,0,0,0-5.83-1.27,17.18,17.18,0,0,0-6.87,1.32A15.45,15.45,0,0,0,171.61,9a16.15,16.15,0,0,0-3.31,5.46,19.56,19.56,0,0,0-1.16,6.79,19.56,19.56,0,0,0,1.16,6.79,16.2,16.2,0,0,0,3.31,5.47,15.42,15.42,0,0,0,5.22,3.64,17.18,17.18,0,0,0,6.87,1.33A14.25,14.25,0,0,0,189.91,37a14.9,14.9,0,0,0,2.9-1.87,12.14,12.14,0,0,0,2.43-2.74Z"/><path class="cls-2" d="M216.88,1.73h3.75l16.45,39.08H233l-4.25-10.37h-20.7l-4.42,10.37h-3.81Zm1.71,4-9.11,21.41h17.94Z"/><path class="cls-2" d="M243.76,33.58a9.34,9.34,0,0,0,3.73,3.7,10.92,10.92,0,0,0,5.21,1.22,10.31,10.31,0,0,0,3.42-.56,8.58,8.58,0,0,0,2.79-1.54,7.35,7.35,0,0,0,1.88-2.4,7.14,7.14,0,0,0,.69-3.18,6.07,6.07,0,0,0-.86-3.36,6.87,6.87,0,0,0-2.29-2.19,16.86,16.86,0,0,0-3.23-1.46c-1.19-.4-2.43-.81-3.69-1.21s-2.51-.87-3.7-1.38a12.31,12.31,0,0,1-3.23-2,8.88,8.88,0,0,1-2.29-3.12,11.13,11.13,0,0,1-.86-4.63,10.06,10.06,0,0,1,1-4.61,9.76,9.76,0,0,1,2.76-3.37,12.35,12.35,0,0,1,4-2,16.13,16.13,0,0,1,4.74-.69,15.48,15.48,0,0,1,5.94,1.13,11.25,11.25,0,0,1,4.72,3.78l-3.15,2.26A9.28,9.28,0,0,0,258.14,5a9.29,9.29,0,0,0-4.39-1,12,12,0,0,0-3.37.47A8.33,8.33,0,0,0,247.6,5.9a6.75,6.75,0,0,0-1.91,2.29,7,7,0,0,0-.72,3.26,6.27,6.27,0,0,0,1.5,4.5,10.6,10.6,0,0,0,3.72,2.48,39,39,0,0,0,4.86,1.6,23.65,23.65,0,0,1,4.86,1.85,10.41,10.41,0,0,1,3.72,3.23,9.56,9.56,0,0,1,1.49,5.71,10.6,10.6,0,0,1-1,4.69A10.16,10.16,0,0,1,261.45,39a11.58,11.58,0,0,1-3.89,2.13,14.68,14.68,0,0,1-4.58.72,18.39,18.39,0,0,1-7.12-1.35,13.11,13.11,0,0,1-5.58-4.56Z"/><path class="cls-2" d="M282.07,5H268.71V1.73h30.36V5H285.71V40.81h-3.64Z"/><path class="cls-2" d="M305.09,1.73H329V5H308.73V19h19v3.32h-19V37.5h21.14v3.31H305.09Z"/><path class="cls-2" d="M335.34,1.73h10.27c.51,0,1.21,0,2.09.06a19.45,19.45,0,0,1,2.87.33,17.76,17.76,0,0,1,3.15.88,8.89,8.89,0,0,1,2.87,1.77,9.12,9.12,0,0,1,2.1,2.92,10.16,10.16,0,0,1,.83,4.31,9.92,9.92,0,0,1-1,4.64,8.87,8.87,0,0,1-2.43,2.95,10.26,10.26,0,0,1-3.23,1.68,21.2,21.2,0,0,1-3.36.78L360.9,40.81h-4.14l-11-18.54H339V40.81h-3.64ZM339,19h7.73a12.68,12.68,0,0,0,4.66-.71,7.71,7.71,0,0,0,2.79-1.77,5.61,5.61,0,0,0,1.35-2.26,7.86,7.86,0,0,0,.36-2.21,7.86,7.86,0,0,0-.36-2.21,5.61,5.61,0,0,0-1.35-2.26,7.71,7.71,0,0,0-2.79-1.77A12.66,12.66,0,0,0,346.71,5H339Z"/><path class="cls-4" d="M372.76,1.73H384a21,21,0,0,1,4.28.47,12.53,12.53,0,0,1,4.09,1.63,9.13,9.13,0,0,1,3,3.17,9.86,9.86,0,0,1,1.19,5.05,10.09,10.09,0,0,1-1,4.59,9,9,0,0,1-2.59,3.17,11.34,11.34,0,0,1-3.75,1.85,16.32,16.32,0,0,1-4.45.61h-8.44V40.81h-3.65ZM376.41,19h8.28a12.81,12.81,0,0,0,3-.35,7.86,7.86,0,0,0,2.65-1.16,6.06,6.06,0,0,0,1.88-2.13,6.74,6.74,0,0,0,.72-3.26,6.42,6.42,0,0,0-.75-3.2,6.76,6.76,0,0,0-1.93-2.18,7.92,7.92,0,0,0-2.73-1.24A12.58,12.58,0,0,0,384.47,5h-8.06Z"/><path class="cls-4" d="M404.45,1.73h10.27c.51,0,1.21,0,2.09.06a19.45,19.45,0,0,1,2.87.33,17.76,17.76,0,0,1,3.15.88,8.89,8.89,0,0,1,2.87,1.77,9.12,9.12,0,0,1,2.1,2.92,10.16,10.16,0,0,1,.83,4.31,9.92,9.92,0,0,1-1,4.64,8.87,8.87,0,0,1-2.43,2.95A10.26,10.26,0,0,1,422,21.27a21.2,21.2,0,0,1-3.36.78L430,40.81h-4.14l-11-18.54h-6.79V40.81h-3.64ZM408.09,19h7.73a12.68,12.68,0,0,0,4.66-.71,7.71,7.71,0,0,0,2.79-1.77,5.61,5.61,0,0,0,1.35-2.26A7.86,7.86,0,0,0,425,12a7.86,7.86,0,0,0-.36-2.21,5.61,5.61,0,0,0-1.35-2.26,7.71,7.71,0,0,0-2.79-1.77A12.66,12.66,0,0,0,415.82,5h-7.73Z"/><path class="cls-4" d="M434.64,21.27a22.13,22.13,0,0,1,1.49-8.22,19.81,19.81,0,0,1,4.14-6.49,18.8,18.8,0,0,1,6.38-4.28,22.57,22.57,0,0,1,16.39,0,18.8,18.8,0,0,1,6.38,4.28,19.49,19.49,0,0,1,4.14,6.49,22.13,22.13,0,0,1,1.49,8.22,22.37,22.37,0,0,1-1.49,8.25A19.32,19.32,0,0,1,469.42,36,18.45,18.45,0,0,1,463,40.29a22.85,22.85,0,0,1-16.39,0A18.45,18.45,0,0,1,440.27,36a19.64,19.64,0,0,1-4.14-6.52A22.37,22.37,0,0,1,434.64,21.27Zm3.65,0a19.56,19.56,0,0,0,1.15,6.79,16.22,16.22,0,0,0,3.32,5.47A15.29,15.29,0,0,0,448,37.17a18.43,18.43,0,0,0,13.75,0,15.29,15.29,0,0,0,5.21-3.64,16.22,16.22,0,0,0,3.32-5.47,19.56,19.56,0,0,0,1.16-6.79,19.56,19.56,0,0,0-1.16-6.79A16.18,16.18,0,0,0,466.93,9a15.31,15.31,0,0,0-5.21-3.65,18.56,18.56,0,0,0-13.75,0A15.31,15.31,0,0,0,442.76,9a16.18,16.18,0,0,0-3.32,5.46A19.56,19.56,0,0,0,438.29,21.27Z"/></svg>