<?xml version="1.0" encoding="utf-8"?>
<!-- Generator: Adobe Illustrator 24.1.2, SVG Export Plug-In . SVG Version: 6.00 Build 0)  -->
<svg version="1.1" id="Layer_1" xmlns="http://www.w3.org/2000/svg" xmlns:xlink="http://www.w3.org/1999/xlink" x="0px" y="0px"
	 viewBox="0 0 87 24.03" style="enable-background:new 0 0 87 24.03;" xml:space="preserve">
<g>
	<path d="M19.73,7.58c0-4.3-4.25-6.97-8.2-6.97H0v22.9h6.87V12.45l5.33,10.86l0.1,0.15h7.84l-5.48-9.58
		C17.78,12.96,19.73,10.55,19.73,7.58z M6.87,3.89h2c2.2,0,3.74,1.54,3.74,3.79c0,3.23-1.84,3.84-5.02,3.84H6.81V3.89H6.87z"/>
	<polygon points="78.65,19.83 78.65,13.58 86.13,13.58 86.13,9.94 78.65,9.94 78.65,4.25 87,4.25 87,0.61 71.78,0.61 71.78,23.52 
		86.95,23.52 86.95,19.83 	"/>
	<path d="M57.64,0.61H47.5v22.9h11.17c6.87,0,11.27-4.36,11.27-11.02C69.94,5.58,64.76,0.61,57.64,0.61z M62.82,11.58
		c0,4.25-1.69,8.81-6.46,8.81h-2.31V3.74h2.05C60.77,3.74,62.82,7.69,62.82,11.58z"/>
	<path d="M45.09,2.15l-1.9-1.9l-2.36,2.36C38.79,0.97,36.12,0,33.2,0c-6.87,0-12.19,5.28-12.19,12.04c0,2.92,1.02,5.58,2.66,7.63
		l-2.31,2.31l1.9,1.9l2.36-2.36c2.05,1.59,4.66,2.51,7.53,2.51c6.81,0,12.14-5.28,12.14-12.04c0-2.87-0.97-5.48-2.61-7.53
		L45.09,2.15z M33.2,2.97c2.15,0,3.38,1.38,4.1,3.13l-8.97,8.97c-0.15-1.13-0.2-2.2-0.2-3.02C28.13,9.33,28.64,2.97,33.2,2.97z
		 M38.02,9.17c0.15,1.08,0.2,2.1,0.2,2.87c0,2.72-0.51,9.07-5.07,9.07c-2.1,0-3.33-1.33-4.05-3.02L38.02,9.17z"/>
</g>
</svg>
