<svg width="142" height="85" viewBox="0 0 142 85" fill="none" xmlns="http://www.w3.org/2000/svg">
<g clip-path="url(#clip0)">
<path d="M32.1956 12.4956C32.1956 5.40099 25.2314 1.01955 18.7856 1.01955H0V38.6663H11.2363V20.4833L19.8976 38.3714L20.0397 38.6663H32.7975L23.8938 22.8257C29.027 21.3343 32.1956 17.3994 32.1956 12.4956ZM11.2363 6.46265H14.5302C18.1168 6.46265 20.6249 9.01568 20.6249 12.6641C20.6249 17.9471 17.6319 18.9835 12.4485 18.9835H11.2279V6.46265H11.2363Z" fill="black"/>
<path d="M128.348 32.6502V22.337H140.57V16.3293H128.348V7.02718H142V1.01955H117.12V38.6663H141.916V32.6502H128.348Z" fill="black"/>
<path d="M94.0371 1.01955H77.4836V38.6663H95.7175C106.895 38.6663 114.119 31.5464 114.119 20.517C114.11 9.2179 105.666 1.01955 94.0371 1.01955ZM102.498 19.0509C102.498 26.0443 99.7304 33.5096 91.9553 33.5096H88.2016V6.16774H91.5624C99.1201 6.16774 102.498 12.6388 102.498 19.0509Z" fill="black"/>
<path d="M73.5541 3.56414L70.4273 0.412867L66.59 4.28033C63.1957 1.59249 58.8901 0 54.1331 0C42.9971 0 34.2773 8.71233 34.2773 19.8429C34.2773 24.654 35.9076 29.0186 38.6665 32.4143L34.8876 36.2227L38.0144 39.374L41.8351 35.5234C45.1959 38.1354 49.4513 39.6858 54.1331 39.6858C65.269 39.6858 73.9888 30.9734 73.9888 19.8429C73.9888 15.0991 72.4004 10.8019 69.7167 7.42318L73.5541 3.56414ZM54.1331 4.92912C57.611 4.92912 59.6342 7.21253 60.813 10.0942L46.2326 24.7889C45.9651 22.9099 45.8982 21.132 45.8982 19.8429C45.8898 15.3603 46.6924 4.92912 54.1331 4.92912ZM62.067 15.1328C62.3095 16.9275 62.368 18.6043 62.368 19.8429C62.368 24.3254 61.5654 34.7566 54.1247 34.7566C50.7221 34.7566 48.7156 32.5743 47.5284 29.777L62.067 15.1328Z" fill="black"/>
<path d="M71.4085 84.984C80.6079 84.7558 87.8821 77.0547 87.6557 67.7832C87.4293 58.5116 79.7882 51.1804 70.5887 51.4086C61.3892 51.6367 54.1151 59.3378 54.3415 68.6094C54.5678 77.881 62.209 85.2121 71.4085 84.984Z" fill="#AD9970"/>
</g>
<defs>
<clipPath id="clip0">
<rect width="142" height="85" fill="white"/>
</clipPath>
</defs>
</svg>
