<svg id="Layer_1" data-name="Layer 1" xmlns="http://www.w3.org/2000/svg" viewBox="0 0 540 88"><defs><style>.cls-1{fill:#010101;}.cls-2{fill:#a99975;}.cls-3{fill:#fff;}</style></defs><path class="cls-1" d="M60.65,42.38h9l6,24.12h.11l7.86-24.12h7.7l7.81,24.76h.1l6.32-24.76H114L103,80H95.6L87.31,54h-.1L78.92,80H71.8Z"/><path class="cls-1" d="M117.59,42.38h8.29V80h-8.29Z"/><path class="cls-1" d="M133.42,42.38H148a25.88,25.88,0,0,1,5.45.56,12.85,12.85,0,0,1,4.51,1.86A9.3,9.3,0,0,1,161,48.31a11.87,11.87,0,0,1,1.14,5.49,11.06,11.06,0,0,1-2.07,6.78A9.34,9.34,0,0,1,154,64.11L163.59,80h-9.93l-7.87-15H141.7V80h-8.28ZM141.7,58h4.89c.74,0,1.53,0,2.36-.08a7.42,7.42,0,0,0,2.26-.48,4,4,0,0,0,1.68-1.25,3.8,3.8,0,0,0,.66-2.39,4,4,0,0,0-.59-2.28,3.85,3.85,0,0,0-1.48-1.3,6.51,6.51,0,0,0-2.07-.62,18,18,0,0,0-2.29-.15H141.7Z"/><path class="cls-1" d="M168.16,42.38h25.55V50H176.44v7h16.31v7.65H176.44v7.65h18.22V80h-26.5Z"/><path class="cls-1" d="M201.62,42.38h8.29v30h15.35V80H201.62Z"/><path class="cls-1" d="M230.14,42.38h25.55V50H238.43v7h16.31v7.65H238.43v7.65h18.22V80H230.14Z"/><path class="cls-1" d="M281.88,51.57a5.84,5.84,0,0,0-2.74-1.88,9.72,9.72,0,0,0-3.26-.61,8.63,8.63,0,0,0-1.86.21,7.13,7.13,0,0,0-1.81.66,3.91,3.91,0,0,0-1.38,1.2,3,3,0,0,0-.53,1.8,3,3,0,0,0,1.27,2.61,12.38,12.38,0,0,0,3.22,1.54c1.29.42,2.68.85,4.17,1.27a17.44,17.44,0,0,1,4.17,1.81,9.89,9.89,0,0,1,3.21,3.13,9.57,9.57,0,0,1,1.28,5.26A12.08,12.08,0,0,1,286.45,74a11.11,11.11,0,0,1-3.16,3.88,13.32,13.32,0,0,1-4.62,2.28,20.21,20.21,0,0,1-5.55.75,19.92,19.92,0,0,1-6.8-1.12,17.1,17.1,0,0,1-5.85-3.61l5.9-6.48a8.65,8.65,0,0,0,3.21,2.63,9.2,9.2,0,0,0,4,.93,9,9,0,0,0,2.05-.24,6.67,6.67,0,0,0,1.86-.72,4,4,0,0,0,1.33-1.22,3.1,3.1,0,0,0,.5-1.75,3.15,3.15,0,0,0-1.3-2.68A11.91,11.91,0,0,0,274.76,65c-1.31-.46-2.73-.92-4.25-1.38a19.08,19.08,0,0,1-4.25-1.86A10.1,10.1,0,0,1,263,58.69a8.8,8.8,0,0,1-1.31-5,11.3,11.3,0,0,1,1.2-5.31,11.59,11.59,0,0,1,3.19-3.82,13.78,13.78,0,0,1,4.59-2.31,18.6,18.6,0,0,1,5.37-.77,21.21,21.21,0,0,1,6.16.9,14.12,14.12,0,0,1,5.36,3Z"/><path class="cls-1" d="M312.37,51.57a5.84,5.84,0,0,0-2.74-1.88,9.72,9.72,0,0,0-3.26-.61,8.56,8.56,0,0,0-1.86.21,7.13,7.13,0,0,0-1.81.66,3.83,3.83,0,0,0-1.38,1.2,3,3,0,0,0-.53,1.8,3,3,0,0,0,1.27,2.61,12.23,12.23,0,0,0,3.22,1.54c1.29.42,2.68.85,4.17,1.27a17.61,17.61,0,0,1,4.17,1.81,9.89,9.89,0,0,1,3.21,3.13,9.57,9.57,0,0,1,1.28,5.26A12.08,12.08,0,0,1,316.94,74a11.22,11.22,0,0,1-3.16,3.88,13.32,13.32,0,0,1-4.62,2.28,20.23,20.23,0,0,1-5.56.75,19.9,19.9,0,0,1-6.79-1.12A17.1,17.1,0,0,1,291,76.22l5.9-6.48a8.65,8.65,0,0,0,3.21,2.63,9,9,0,0,0,6.06.69,6.67,6.67,0,0,0,1.86-.72,4,4,0,0,0,1.32-1.22,3,3,0,0,0,.51-1.75,3.15,3.15,0,0,0-1.3-2.68A11.91,11.91,0,0,0,305.25,65c-1.31-.46-2.73-.92-4.25-1.38a19.08,19.08,0,0,1-4.25-1.86,10.1,10.1,0,0,1-3.26-3.08,8.8,8.8,0,0,1-1.31-5,11.3,11.3,0,0,1,1.2-5.31,11.59,11.59,0,0,1,3.19-3.82,13.68,13.68,0,0,1,4.59-2.31,18.6,18.6,0,0,1,5.37-.77,21.21,21.21,0,0,1,6.16.9,14.12,14.12,0,0,1,5.36,3Z"/><path class="cls-1" d="M488.21,31.49h-2V30.43h5.24v1.06h-2v5.56h-1.26Zm4.52-1.06h1.91l1.78,5.08h.05l1.78-5.08h1.92v6.62h-1.26V31.52h0L497,37.05h-1L494,31.52h0v5.53h-1.25Z"/><rect class="cls-2" x="327" y="30" width="97.29" height="58" rx="12.19"/><path class="cls-3" d="M371.49,77.06A31.52,31.52,0,0,1,363.41,80a40.25,40.25,0,0,1-8.58.9,24.78,24.78,0,0,1-8.59-1.45,19.8,19.8,0,0,1-6.79-4.19A19,19,0,0,1,335,68.64,22.54,22.54,0,0,1,333.4,60,22.52,22.52,0,0,1,335,51.37a19.11,19.11,0,0,1,4.46-6.6,19.78,19.78,0,0,1,6.79-4.18,24.55,24.55,0,0,1,8.59-1.45,31.3,31.3,0,0,1,8.78,1.15,17.22,17.22,0,0,1,7,3.94L364.48,51a12.25,12.25,0,0,0-4-2.8,14.3,14.3,0,0,0-5.61-1,12.92,12.92,0,0,0-5.08,1,11.18,11.18,0,0,0-3.89,2.66,11.53,11.53,0,0,0-2.51,4.07,15.67,15.67,0,0,0,0,10.24,11.67,11.67,0,0,0,2.51,4,11.32,11.32,0,0,0,3.89,2.66,12.92,12.92,0,0,0,5.08,1,16.76,16.76,0,0,0,4.94-.65,18.55,18.55,0,0,0,3.31-1.32V64.38H356V56.3h15.54Z"/><path class="cls-3" d="M375,60a22.52,22.52,0,0,1,1.59-8.63,19.11,19.11,0,0,1,4.46-6.6,19.78,19.78,0,0,1,6.79-4.18,26,26,0,0,1,17.17,0,19.69,19.69,0,0,1,6.79,4.18,18.84,18.84,0,0,1,4.46,6.6,22.34,22.34,0,0,1,1.6,8.63,22.35,22.35,0,0,1-1.6,8.64,18.71,18.71,0,0,1-4.46,6.59A19.71,19.71,0,0,1,405,79.42a26.14,26.14,0,0,1-17.17,0A19.8,19.8,0,0,1,381,75.23a19,19,0,0,1-4.46-6.59A22.54,22.54,0,0,1,375,60m9.09,0a14.59,14.59,0,0,0,.86,5.14,11.58,11.58,0,0,0,2.51,4,11.32,11.32,0,0,0,3.89,2.66,13.89,13.89,0,0,0,10.15,0,11.5,11.5,0,0,0,3.91-2.66,11.83,11.83,0,0,0,2.49-4,15.5,15.5,0,0,0,0-10.24,11.68,11.68,0,0,0-2.49-4.07,11.5,11.5,0,0,0-3.91-2.66,13.89,13.89,0,0,0-10.15,0,11.32,11.32,0,0,0-3.89,2.66,11.44,11.44,0,0,0-2.51,4.07,14.6,14.6,0,0,0-.86,5.1"/><path class="cls-2" d="M448,30h5.87V88H436.45V41.64A11.65,11.65,0,0,1,448,30Z"/><path class="cls-2" d="M469.56,88h-5.87V30h17.45V76.36A11.65,11.65,0,0,1,469.56,88Z"/></svg>